<svg width="28" height="28" viewBox="0 0 28 28" fill="none" xmlns="http://www.w3.org/2000/svg">
<path d="M8.75033 12.8335C9.36916 12.8335 9.96266 12.5877 10.4002 12.1501C10.8378 11.7125 11.0837 11.119 11.0837 10.5002C11.0837 9.88132 10.8378 9.28783 10.4002 8.85025C9.96266 8.41266 9.36916 8.16683 8.75033 8.16683H3.50033V12.8335H8.75033ZM9.91699 15.1668H3.50033V19.8335H9.91699C10.5358 19.8335 11.1293 19.5877 11.5669 19.1501C12.0045 18.7125 12.2503 18.119 12.2503 17.5002C12.2503 16.8813 12.0045 16.2878 11.5669 15.8502C11.1293 15.4127 10.5358 15.1668 9.91699 15.1668ZM12.3238 13.5008C13.1983 14.0266 13.8763 14.8246 14.2541 15.7724C14.6318 16.7203 14.6885 17.7658 14.4155 18.749C14.1424 19.7321 13.5547 20.5987 12.7422 21.216C11.9297 21.8333 10.9374 22.1673 9.91699 22.1668H1.16699V5.8335H8.75033C9.63893 5.83341 10.5091 6.08703 11.2585 6.56454C12.0079 7.04204 12.6054 7.72358 12.9807 8.52902C13.356 9.33446 13.4936 10.2303 13.3772 11.1113C13.2609 11.9922 12.8954 12.8216 12.3238 13.502M18.0837 7.00016H24.5003V8.75016H18.0837V7.00016ZM26.8337 16.9168H18.0837V17.2085C18.0834 17.9292 18.3258 18.629 18.7718 19.1951C19.2178 19.7612 19.8414 20.1607 20.5421 20.3291C21.2429 20.4976 21.9799 20.4252 22.6345 20.1236C23.289 19.8221 23.823 19.3089 24.1503 18.6668H26.64C26.2845 19.9598 25.4725 21.0802 24.3543 21.8203C23.2361 22.5604 21.8875 22.8702 20.5584 22.6922C19.2293 22.5142 18.0098 21.8605 17.1258 20.8522C16.2417 19.844 15.753 18.5495 15.7503 17.2085V15.4585C15.7503 13.9888 16.3342 12.5792 17.3734 11.5399C18.4127 10.5007 19.8223 9.91683 21.292 9.91683C22.7617 9.91683 24.1713 10.5007 25.2105 11.5399C26.2498 12.5792 26.8337 13.9888 26.8337 15.4585V16.9168ZM24.379 14.5835C24.188 13.9121 23.7832 13.3212 23.2262 12.9005C22.6691 12.4798 21.9901 12.2522 21.292 12.2522C20.5939 12.2522 19.9149 12.4798 19.3578 12.9005C18.8007 13.3212 18.396 13.9121 18.205 14.5835H24.379Z" fill="white"/>
</svg>
