<svg width="21" height="20" viewBox="0 0 21 20" fill="none" xmlns="http://www.w3.org/2000/svg">
<path d="M10.1436 0.568703C15.1415 0.254731 19.4476 4.05189 19.7617 9.04974C20.0757 14.0477 16.2786 18.3538 11.2806 18.6678C8.51666 18.8413 5.96597 17.756 4.18343 15.9071L5.60738 15.8177C7.12445 17.0675 9.09941 17.7685 11.2158 17.6356C15.6435 17.3575 19.0077 13.5423 18.7295 9.11458C18.4513 4.68694 14.6361 1.3227 10.2085 1.60085C8.28565 1.72175 6.56427 2.51074 5.25385 3.72622L3.74414 3.82106C5.28416 1.97059 7.55129 0.731688 10.1436 0.568703Z" fill="white"/>
<path d="M12.2098 10.1624C12.4314 9.94083 12.4314 9.58164 12.2098 9.36009L8.59959 5.74984C8.37804 5.52829 8.01885 5.52829 7.79731 5.74984C7.57576 5.97138 7.57576 6.33057 7.79731 6.55211L11.0064 9.76123L7.79731 12.9703C7.57576 13.1919 7.57576 13.5511 7.79731 13.7726C8.01885 13.9942 8.37804 13.9942 8.59959 13.7726L12.2098 10.1624ZM0 9.76123L-4.95947e-08 10.3285L11.8087 10.3285L11.8087 9.76123L11.8087 9.19393L4.95947e-08 9.19393L0 9.76123Z" fill="white"/>
</svg>
