<svg width="32" height="32" viewBox="0 0 32 32" fill="none" xmlns="http://www.w3.org/2000/svg">
<path d="M13.8264 10.3698C14.2311 10.3697 14.6231 10.5117 14.9339 10.771C15.2447 11.0303 15.4546 11.3905 15.527 11.7887C15.8748 11.5871 16.2344 11.4064 16.6038 11.2478C17.7565 10.7552 19.4831 10.4839 21.042 10.973C21.8595 11.2322 22.6805 11.7161 23.2888 12.5405C23.8332 13.2751 24.127 14.1686 24.1858 15.1727L24.1962 15.5547V22.4679C24.1957 22.9084 24.027 23.3321 23.7246 23.6524C23.4222 23.9727 23.0089 24.1655 22.5692 24.1913C22.1294 24.2171 21.6964 24.074 21.3586 23.7913C21.0208 23.5086 20.8037 23.1075 20.7517 22.6701L20.7396 22.4679V15.5547C20.7396 14.9843 20.6013 14.7182 20.5114 14.5955C20.3825 14.435 20.2047 14.3209 20.0051 14.2706C19.4036 14.0804 18.5377 14.1807 17.9622 14.4261C17.0981 14.796 16.3065 15.3767 15.7673 15.9142L15.5547 16.1423V22.4679C15.5542 22.9084 15.3855 23.3321 15.0831 23.6524C14.7807 23.9727 14.3674 24.1655 13.9277 24.1913C13.4879 24.2171 13.0549 24.074 12.7171 23.7913C12.3793 23.5086 12.1622 23.1075 12.1102 22.6701L12.0981 22.4679V12.0981C12.0981 11.6397 12.2802 11.2001 12.6043 10.876C12.9284 10.5519 13.368 10.3698 13.8264 10.3698Z" fill="white"/>
<path d="M8.64149 12.0981C9.06481 12.0981 9.47339 12.2536 9.78973 12.5349C10.1061 12.8162 10.3082 13.2038 10.3577 13.6242L10.3698 13.8264V22.4679C10.3693 22.9084 10.2006 23.3321 9.89823 23.6524C9.59583 23.9727 9.18253 24.1655 8.74278 24.1913C8.30303 24.2171 7.87002 24.074 7.53222 23.7913C7.19441 23.5086 6.97732 23.1075 6.92529 22.6701L6.91319 22.4679V13.8264C6.91319 13.368 7.09528 12.9284 7.4194 12.6043C7.74352 12.2802 8.18312 12.0981 8.64149 12.0981Z" fill="white"/>
<path d="M8.64149 6.91319C9.09987 6.91319 9.53947 7.09528 9.86358 7.4194C10.1877 7.74352 10.3698 8.18312 10.3698 8.64149C10.3698 9.09987 10.1877 9.53947 9.86358 9.86358C9.53947 10.1877 9.09987 10.3698 8.64149 10.3698C8.18312 10.3698 7.74352 10.1877 7.4194 9.86358C7.09528 9.53947 6.91319 9.09987 6.91319 8.64149C6.91319 8.18312 7.09528 7.74352 7.4194 7.4194C7.74352 7.09528 8.18312 6.91319 8.64149 6.91319Z" fill="white"/>
</svg>
