<svg width="46" height="46" viewBox="0 0 46 46" fill="none" xmlns="http://www.w3.org/2000/svg">
<path d="M10.0626 14.2065C10.0626 10.1226 12.9465 6.81201 16.504 6.81201C20.0615 6.81201 22.9454 10.1226 22.9454 14.2065M22.9454 14.2065V14.5202M22.9454 14.2065C22.9454 10.1226 25.8294 6.81201 29.3869 6.81201C32.9444 6.81201 35.8283 10.1226 35.8283 14.2065M22.9454 14.2065V14.6995M10.0626 28.8847V31.6844C10.0626 35.7682 12.9465 39.0789 16.504 39.0789C20.0615 39.0789 22.9454 35.7682 22.9454 31.6844M22.9454 31.6844V31.3707M22.9454 31.6844C22.9454 35.7682 25.8294 39.0789 29.3869 39.0789C32.9444 39.0789 35.8283 35.7682 35.8283 31.6844V28.8847M22.9454 31.6844V31.1914M12.0145 29.2195C8.34924 29.2195 5.37793 25.8086 5.37793 21.601C5.37793 17.3934 8.34924 13.9824 12.0145 13.9824M33.8763 29.2195C37.5415 29.2195 40.5129 25.8086 40.5129 21.601C40.5129 17.3934 37.5415 13.9824 33.8763 13.9824M17.2091 27.6062L21.0054 18.3529C21.0223 18.3116 21.0624 18.2847 21.107 18.2847C21.1526 18.2847 21.1935 18.3128 21.2097 18.3554L24.738 27.6062M19.0017 25.0966H22.5869M28.3232 27.6062V18.2847" stroke="white" stroke-width="2.15112" stroke-linecap="round"/>
</svg>
