<svg width="45" height="45" viewBox="0 0 45 45" fill="none" xmlns="http://www.w3.org/2000/svg">
<path d="M20.3584 33.7298H10.8354V7.82385H29.898V20.7414C29.898 21.4325 30.4585 21.9929 31.1496 21.9929C31.8407 21.9929 32.4012 21.4325 32.4012 20.7414V14.9244H36.6968V16.3887C36.6968 17.0799 37.2572 17.6403 37.9484 17.6403C38.6395 17.6403 39.1999 17.0799 39.1999 16.3887V11.5911C39.1999 8.13396 36.3867 5.31934 32.9268 5.31934H7.80102C4.34253 5.31934 1.5293 8.13257 1.5293 11.5911V29.9612C1.5293 33.4197 4.34253 36.2343 7.80102 36.2343H20.3584C21.0495 36.2343 21.6099 35.6739 21.6099 34.9828C21.6099 34.2916 21.0495 33.7298 20.3584 33.7298ZM8.33363 19.5246H4.03242V14.9244H8.33363V19.5246ZM4.03242 22.0291H8.33363V26.6307H4.03242V22.0291ZM36.6982 11.5911V12.4213H32.4026V7.82385H32.9296C35.0072 7.82385 36.6982 9.51346 36.6982 11.5911ZM7.80102 7.82385H8.33363V12.4213H4.03242V11.5911C4.03242 9.51346 5.72342 7.82385 7.80102 7.82385ZM4.03242 29.9612V29.1338H8.33363V33.7298H7.80102C5.72342 33.7298 4.03242 32.0388 4.03242 29.9612Z" fill="white"/>
<path d="M24.2914 18.3665L21.1847 16.1707C20.2808 15.5324 19.1071 15.4531 18.1239 15.9621C17.1408 16.4711 16.5303 17.4751 16.5303 18.582V22.9736C16.5303 24.0806 17.1408 25.0846 18.1239 25.5936C18.5536 25.8161 19.0195 25.9259 19.484 25.9259C20.0819 25.9259 20.6757 25.7424 21.1861 25.3836L24.2941 23.1864C25.0757 22.6357 25.5401 21.7332 25.5401 20.7778C25.5401 19.8225 25.0729 18.9186 24.2914 18.3665ZM22.8465 21.1422L19.7398 23.338C19.5451 23.4742 19.3644 23.4172 19.2754 23.3686C19.185 23.3227 19.0334 23.2086 19.0334 22.9722V18.5806C19.0334 18.3442 19.185 18.2302 19.2754 18.1843C19.324 18.1579 19.3977 18.1301 19.4867 18.1301C19.5632 18.1301 19.6508 18.1523 19.7398 18.2163L22.8465 20.4121C23.012 20.5289 23.0356 20.6902 23.0356 20.7778C23.0356 20.8654 23.012 21.0267 22.8465 21.1422Z" fill="white"/>
<path d="M41.742 21.1793C41.742 21.1779 41.742 21.1779 41.742 21.1793C40.1052 19.5439 37.4464 19.5467 35.811 21.1779L24.953 32.0373C24.6123 32.3794 24.3898 32.8119 24.3119 33.2805L23.7668 36.5012C23.6444 37.234 23.8836 37.985 24.4093 38.5092C24.8445 38.9445 25.4314 39.1823 26.0377 39.1823C26.1642 39.1823 26.2922 39.1712 26.4187 39.1517L29.6338 38.6066C30.108 38.5287 30.5391 38.3062 30.8812 37.9655L41.7406 27.1061C43.3732 25.4735 43.3732 22.8133 41.742 21.1793ZM29.2222 36.1382L26.281 36.6361L26.7247 33.8075L34.6762 25.8546L37.0723 28.2506L29.2222 36.1382ZM39.9704 25.3386L38.8384 26.4762L36.4465 24.0843L37.5799 22.9495C37.9094 22.6214 38.3433 22.4559 38.7744 22.4559C39.2083 22.4559 39.6408 22.6214 39.9704 22.9495C40.6295 23.6087 40.6281 24.6809 39.9704 25.3386Z" fill="white"/>
</svg>
