<svg width="46" height="42" viewBox="0 0 46 42" fill="none" xmlns="http://www.w3.org/2000/svg">
<g opacity="0.2" clip-path="url(#clip0_2793_292)">
<path d="M30.9224 21.2015C25.1291 21.2015 24.618 24.7797 24.618 27.3355C24.618 21.5422 21.5509 21.2015 17.9727 21.2015C24.618 21.2015 24.618 17.2825 24.618 14.897C24.618 20.3495 27.8554 21.2015 30.9224 21.2015Z" fill="#F4F4F4" stroke="#F4F4F4"/>
<path d="M0 20.6982L0 21.6982H18V20.6982H0Z" fill="#F4F4F4"/>
<path d="M9.9375 16.8556C10.9518 13.0702 13.2833 9.77086 16.5127 7.55075C19.7421 5.33064 23.6574 4.33543 27.555 4.74406C31.4525 5.1527 35.0765 6.93837 37.7752 9.78001C40.4739 12.6216 42.0704 16.3328 42.2775 20.2462C42.4846 24.1597 41.2888 28.0186 38.9051 31.1292C36.5215 34.2399 33.1062 36.3981 29.2735 37.2158C25.4409 38.0336 21.4423 37.4572 17.9966 35.5904C14.5509 33.7235 11.8843 30.6887 10.4761 27.0315" stroke="#F4F4F4" stroke-width="1.5" stroke-linecap="round"/>
</g>
<defs>
<clipPath id="clip0_2793_292">
<rect width="46" height="42" fill="white"/>
</clipPath>
</defs>
</svg>
